<?xml version="1.0" encoding="UTF-8"?><svg id="Calque_1" xmlns="http://www.w3.org/2000/svg" viewBox="0 0 1920 1080"><defs><style>.cls-1{fill:#700032;opacity:.25;}</style></defs><path class="cls-1" d="M1327.92,308.23L960.08,124.31c-10.25-5.13-22.51-4.1-31.78,2.66l-340.59,248.63c-7.91,5.77-12.58,14.97-12.58,24.76v330.37c0,11.83,6.81,22.6,17.49,27.69l415.52,197.54c.18,.08,.37,.11,.55,.19,1.48,.67,3.04,1.17,4.64,1.6,.51,.14,.99,.36,1.51,.47,2.08,.45,4.22,.71,6.43,.71,.01,0,.02,0,.04,0h0s.01,0,.02,0c1.9,0,3.78-.22,5.64-.57,.68-.13,1.32-.34,1.99-.51,1.15-.3,2.28-.62,3.39-1.05,.73-.28,1.42-.61,2.12-.94,.99-.47,1.95-.99,2.89-1.57,.67-.42,1.33-.85,1.97-1.31,.37-.27,.77-.47,1.13-.76l292.91-234.25c7.27-5.82,11.51-14.63,11.51-23.94V335.65c0-11.61-6.56-22.22-16.95-27.42Zm-691.48,107.7l77.12-56.3,44.42,61.98c4.8,6.71,12.1,11.19,20.25,12.44,8.15,1.26,16.46-.82,23.06-5.77l108.34-81.26,81.03,143.15v389.58l-354.21-168.4V415.93Zm647.12,263.36l-231.6,185.22V482.1c0-5.3-1.37-10.5-3.98-15.1l-102.18-180.51c-4.34-7.67-11.77-13.1-20.4-14.9-8.62-1.8-17.61,.2-24.67,5.48l-111.17,83.38-26.49-36.96,186.29-135.99,334.19,167.09v324.7Z"/></svg>