<svg width="125" height="29" viewBox="0 0 125 29" fill="none" xmlns="http://www.w3.org/2000/svg">
<path d="M9.98 12.52H4.74L3.9 15H0.32L5.4 0.96H9.36L14.44 15H10.82L9.98 12.52ZM9.1 9.88L7.36 4.74L5.64 9.88H9.1ZM24.6461 15L21.7261 9.7H20.9061V15H17.4861V0.96H23.2261C24.3328 0.96 25.2728 1.15333 26.0461 1.54C26.8328 1.92667 27.4194 2.46 27.8061 3.14C28.1928 3.80667 28.3861 4.55333 28.3861 5.38C28.3861 6.31333 28.1194 7.14667 27.5861 7.88C27.0661 8.61333 26.2928 9.13333 25.2661 9.44L28.5061 15H24.6461ZM20.9061 7.28H23.0261C23.6528 7.28 24.1194 7.12667 24.4261 6.82C24.7461 6.51333 24.9061 6.08 24.9061 5.52C24.9061 4.98667 24.7461 4.56667 24.4261 4.26C24.1194 3.95333 23.6528 3.8 23.0261 3.8H20.9061V7.28ZM31.453 7.96C31.453 6.57333 31.753 5.34 32.353 4.26C32.953 3.16667 33.7863 2.32 34.853 1.72C35.933 1.10667 37.153 0.799999 38.513 0.799999C40.1796 0.799999 41.6063 1.24 42.793 2.12C43.9796 3 44.773 4.2 45.173 5.72H41.413C41.133 5.13333 40.733 4.68667 40.213 4.38C39.7063 4.07333 39.1263 3.92 38.473 3.92C37.4196 3.92 36.5663 4.28667 35.913 5.02C35.2596 5.75333 34.933 6.73333 34.933 7.96C34.933 9.18667 35.2596 10.1667 35.913 10.9C36.5663 11.6333 37.4196 12 38.473 12C39.1263 12 39.7063 11.8467 40.213 11.54C40.733 11.2333 41.133 10.7867 41.413 10.2H45.173C44.773 11.72 43.9796 12.92 42.793 13.8C41.6063 14.6667 40.1796 15.1 38.513 15.1C37.153 15.1 35.933 14.8 34.853 14.2C33.7863 13.5867 32.953 12.74 32.353 11.66C31.753 10.58 31.453 9.34667 31.453 7.96ZM60.9273 0.96V15H57.5073V9.22H52.1873V15H48.7673V0.96H52.1873V6.46H57.5073V0.96H60.9273ZM68.3163 0.96V15H64.8963V0.96H68.3163ZM75.7147 3.7V6.54H80.2947V9.18H75.7147V12.26H80.8947V15H72.2947V0.96H80.8947V3.7H75.7147ZM89.695 15.14C88.6683 15.14 87.7483 14.9733 86.935 14.64C86.1217 14.3067 85.4683 13.8133 84.975 13.16C84.495 12.5067 84.2417 11.72 84.215 10.8H87.855C87.9083 11.32 88.0883 11.72 88.395 12C88.7017 12.2667 89.1017 12.4 89.595 12.4C90.1017 12.4 90.5017 12.2867 90.795 12.06C91.0883 11.82 91.235 11.4933 91.235 11.08C91.235 10.7333 91.115 10.4467 90.875 10.22C90.6483 9.99333 90.3617 9.80667 90.015 9.66C89.6817 9.51333 89.2017 9.34667 88.575 9.16C87.6683 8.88 86.9283 8.6 86.355 8.32C85.7817 8.04 85.2883 7.62667 84.875 7.08C84.4617 6.53333 84.255 5.82 84.255 4.94C84.255 3.63333 84.7283 2.61333 85.675 1.88C86.6217 1.13333 87.855 0.76 89.375 0.76C90.9217 0.76 92.1683 1.13333 93.115 1.88C94.0617 2.61333 94.5683 3.64 94.635 4.96H90.935C90.9083 4.50667 90.7417 4.15333 90.435 3.9C90.1283 3.63333 89.735 3.5 89.255 3.5C88.8417 3.5 88.5083 3.61333 88.255 3.84C88.0017 4.05333 87.875 4.36667 87.875 4.78C87.875 5.23333 88.0883 5.58667 88.515 5.84C88.9417 6.09333 89.6083 6.36667 90.515 6.66C91.4217 6.96667 92.155 7.26 92.715 7.54C93.2883 7.82 93.7817 8.22667 94.195 8.76C94.6083 9.29333 94.815 9.98 94.815 10.82C94.815 11.62 94.6083 12.3467 94.195 13C93.795 13.6533 93.2083 14.1733 92.435 14.56C91.6617 14.9467 90.7483 15.14 89.695 15.14ZM108.52 0.96V3.7H104.8V15H101.38V3.7H97.6597V0.96H108.52ZM120.476 12.52H115.236L114.396 15H110.816L115.896 0.96H119.856L124.936 15H121.316L120.476 12.52ZM119.596 9.88L117.856 4.74L116.136 9.88H119.596Z" fill="#DCC5B7"/>
<path d="M8.224 22.384L6.76 28H5.104L4.208 24.304L3.28 28H1.624L0.2 22.384H1.664L2.472 26.472L3.472 22.384H4.976L5.936 26.472L6.752 22.384H8.224ZM12.0781 23.48V24.616H13.9101V25.672H12.0781V26.904H14.1501V28H10.7101V22.384H14.1501V23.48H12.0781ZM23.7335 25.12C24.0588 25.1893 24.3202 25.352 24.5175 25.608C24.7148 25.8587 24.8135 26.1467 24.8135 26.472C24.8135 26.9413 24.6482 27.3147 24.3175 27.592C23.9922 27.864 23.5362 28 22.9495 28H20.3335V22.384H22.8615C23.4322 22.384 23.8775 22.5147 24.1975 22.776C24.5228 23.0373 24.6855 23.392 24.6855 23.84C24.6855 24.1707 24.5975 24.4453 24.4215 24.664C24.2508 24.8827 24.0215 25.0347 23.7335 25.12ZM21.7015 24.656H22.5975C22.8215 24.656 22.9922 24.608 23.1095 24.512C23.2322 24.4107 23.2935 24.264 23.2935 24.072C23.2935 23.88 23.2322 23.7333 23.1095 23.632C22.9922 23.5307 22.8215 23.48 22.5975 23.48H21.7015V24.656ZM22.7095 26.896C22.9388 26.896 23.1148 26.8453 23.2375 26.744C23.3655 26.6373 23.4295 26.4853 23.4295 26.288C23.4295 26.0907 23.3628 25.936 23.2295 25.824C23.1015 25.712 22.9228 25.656 22.6935 25.656H21.7015V26.896H22.7095ZM28.7509 22.384V25.744C28.7509 26.08 28.8336 26.3387 28.9989 26.52C29.1643 26.7013 29.4069 26.792 29.7269 26.792C30.0469 26.792 30.2923 26.7013 30.4629 26.52C30.6336 26.3387 30.7189 26.08 30.7189 25.744V22.384H32.0869V25.736C32.0869 26.2373 31.9803 26.6613 31.7669 27.008C31.5536 27.3547 31.2656 27.616 30.9029 27.792C30.5456 27.968 30.1456 28.056 29.7029 28.056C29.2603 28.056 28.8629 27.9707 28.5109 27.8C28.1643 27.624 27.8896 27.3627 27.6869 27.016C27.4843 26.664 27.3829 26.2373 27.3829 25.736V22.384H28.7509ZM36.2156 22.384V28H34.8476V22.384H36.2156ZM40.3749 26.944H42.1669V28H39.0069V22.384H40.3749V26.944ZM46.7234 22.384C47.3154 22.384 47.8328 22.5013 48.2754 22.736C48.7181 22.9707 49.0594 23.3013 49.2994 23.728C49.5448 24.1493 49.6674 24.6373 49.6674 25.192C49.6674 25.7413 49.5448 26.2293 49.2994 26.656C49.0594 27.0827 48.7154 27.4133 48.2674 27.648C47.8248 27.8827 47.3101 28 46.7234 28H44.6194V22.384H46.7234ZM46.6354 26.816C47.1528 26.816 47.5554 26.6747 47.8434 26.392C48.1314 26.1093 48.2754 25.7093 48.2754 25.192C48.2754 24.6747 48.1314 24.272 47.8434 23.984C47.5554 23.696 47.1528 23.552 46.6354 23.552H45.9874V26.816H46.6354ZM60.5433 22.384L58.5993 26.144V28H57.2313V26.144L55.2873 22.384H56.8393L57.9273 24.736L59.0073 22.384H60.5433ZM65.5504 28.056C65.0224 28.056 64.5371 27.9333 64.0944 27.688C63.6571 27.4427 63.3078 27.1013 63.0464 26.664C62.7904 26.2213 62.6624 25.7253 62.6624 25.176C62.6624 24.6267 62.7904 24.1333 63.0464 23.696C63.3078 23.2587 63.6571 22.9173 64.0944 22.672C64.5371 22.4267 65.0224 22.304 65.5504 22.304C66.0784 22.304 66.5611 22.4267 66.9984 22.672C67.4411 22.9173 67.7878 23.2587 68.0384 23.696C68.2944 24.1333 68.4224 24.6267 68.4224 25.176C68.4224 25.7253 68.2944 26.2213 68.0384 26.664C67.7824 27.1013 67.4358 27.4427 66.9984 27.688C66.5611 27.9333 66.0784 28.056 65.5504 28.056ZM65.5504 26.808C65.9984 26.808 66.3558 26.6587 66.6224 26.36C66.8944 26.0613 67.0304 25.6667 67.0304 25.176C67.0304 24.68 66.8944 24.2853 66.6224 23.992C66.3558 23.6933 65.9984 23.544 65.5504 23.544C65.0971 23.544 64.7344 23.6907 64.4624 23.984C64.1958 24.2773 64.0624 24.6747 64.0624 25.176C64.0624 25.672 64.1958 26.0693 64.4624 26.368C64.7344 26.6613 65.0971 26.808 65.5504 26.808ZM72.3275 22.384V25.744C72.3275 26.08 72.4102 26.3387 72.5755 26.52C72.7408 26.7013 72.9835 26.792 73.3035 26.792C73.6235 26.792 73.8688 26.7013 74.0395 26.52C74.2102 26.3387 74.2955 26.08 74.2955 25.744V22.384H75.6635V25.736C75.6635 26.2373 75.5568 26.6613 75.3435 27.008C75.1302 27.3547 74.8422 27.616 74.4795 27.792C74.1222 27.968 73.7222 28.056 73.2795 28.056C72.8368 28.056 72.4395 27.9707 72.0875 27.8C71.7408 27.624 71.4662 27.3627 71.2635 27.016C71.0608 26.664 70.9595 26.2373 70.9595 25.736V22.384H72.3275ZM81.2881 28L80.1201 25.88H79.7921V28H78.4241V22.384H80.7201C81.1628 22.384 81.5388 22.4613 81.8481 22.616C82.1628 22.7707 82.3975 22.984 82.5521 23.256C82.7068 23.5227 82.7841 23.8213 82.7841 24.152C82.7841 24.5253 82.6775 24.8587 82.4641 25.152C82.2561 25.4453 81.9468 25.6533 81.5361 25.776L82.8321 28H81.2881ZM79.7921 24.912H80.6401C80.8908 24.912 81.0775 24.8507 81.2001 24.728C81.3281 24.6053 81.3921 24.432 81.3921 24.208C81.3921 23.9947 81.3281 23.8267 81.2001 23.704C81.0775 23.5813 80.8908 23.52 80.6401 23.52H79.7921V24.912ZM91.0422 22.384C91.6342 22.384 92.1515 22.5013 92.5942 22.736C93.0369 22.9707 93.3782 23.3013 93.6182 23.728C93.8635 24.1493 93.9862 24.6373 93.9862 25.192C93.9862 25.7413 93.8635 26.2293 93.6182 26.656C93.3782 27.0827 93.0342 27.4133 92.5862 27.648C92.1435 27.8827 91.6289 28 91.0422 28H88.9382V22.384H91.0422ZM90.9542 26.816C91.4715 26.816 91.8742 26.6747 92.1622 26.392C92.4502 26.1093 92.5942 25.7093 92.5942 25.192C92.5942 24.6747 92.4502 24.272 92.1622 23.984C91.8742 23.696 91.4715 23.552 90.9542 23.552H90.3062V26.816H90.9542ZM99.4147 28L98.2467 25.88H97.9187V28H96.5507V22.384H98.8467C99.2894 22.384 99.6654 22.4613 99.9747 22.616C100.289 22.7707 100.524 22.984 100.679 23.256C100.833 23.5227 100.911 23.8213 100.911 24.152C100.911 24.5253 100.804 24.8587 100.591 25.152C100.383 25.4453 100.073 25.6533 99.6627 25.776L100.959 28H99.4147ZM97.9187 24.912H98.7667C99.0174 24.912 99.204 24.8507 99.3267 24.728C99.4547 24.6053 99.5187 24.432 99.5187 24.208C99.5187 23.9947 99.4547 23.8267 99.3267 23.704C99.204 23.5813 99.0174 23.52 98.7667 23.52H97.9187V24.912ZM104.937 23.48V24.616H106.769V25.672H104.937V26.904H107.009V28H103.569V22.384H107.009V23.48H104.937ZM113.194 27.008H111.098L110.762 28H109.33L111.362 22.384H112.946L114.978 28H113.53L113.194 27.008ZM112.842 25.952L112.146 23.896L111.458 25.952H112.842ZM123.756 22.384V28H122.388V24.632L121.132 28H120.028L118.764 24.624V28H117.396V22.384H119.012L120.588 26.272L122.148 22.384H123.756Z" fill="#DCC5B7"/>
</svg>
