<?xml version="1.0" encoding="UTF-8"?><svg id="Calque_1" xmlns="http://www.w3.org/2000/svg" xmlns:xlink="http://www.w3.org/1999/xlink" viewBox="0 0 2000 2000"><defs><style>.cls-1{fill:#000450;}.cls-2{fill:url(#Dégradé_sans_nom_8);}.cls-3{fill:url(#Dégradé_sans_nom_4);}.cls-4{fill:#f4c500;}</style><linearGradient id="Dégradé_sans_nom_8" x1="1155.48" y1="1127.75" x2="836.33" y2="820.82" gradientUnits="userSpaceOnUse"><stop offset="0" stop-color="#118cf6"/><stop offset=".78" stop-color="#000450"/></linearGradient><linearGradient id="Dégradé_sans_nom_4" x1="844.04" y1="1012.45" x2="1128.1" y2="595.75" gradientUnits="userSpaceOnUse"><stop offset="0" stop-color="#118cf6"/><stop offset=".61" stop-color="#06368d"/><stop offset="1" stop-color="#000450"/></linearGradient></defs><g><path class="cls-2" d="M1095.39,1107.62c-74.82,4.49-149.57-8.83-224.24-39.49-8.22-1.45-13.58-10.03-11.98-19.16l32.05-181.98c1.61-9.14,9.58-15.37,17.8-13.92,78.03,23.77,152.97,37.19,224.24,39.49,8.22,1.45,13.58,10.03,11.98,19.16l-32.05,181.98c-1.61,9.14-9.58,15.37-17.8,13.92Z"/><path class="cls-3" d="M859.36,752.52c-8.6,94.55-7.69,196.81,0,304.59,71.41-99.47,171.24-176.58,284.1-243.45,1.38-.82,2.5-2.08,2.98-3.61,.37-1.16,.42-2.41,.1-3.64l-47.14-184.96c-2.24-8.8-12.33-12.95-20.11-8.29-86.26,29.43-161.18,68.7-213.33,127.71-4.09,2.45-6.6,6.87-6.6,11.64Z"/></g><g><path class="cls-1" d="M529.68,1158.28v75.4h13.64l71.8-75.4h23.94l-80.18,83.77,80.18,83.77h-23.94l-71.57-75.4h-13.88v75.4h-16.75v-167.54h16.75Z"/><path class="cls-1" d="M721.87,1220.99c-11.49-1.2-19.63,.48-26.81,3.83-13.4,4.55-21.3,16.99-21.3,35.66v65.34h-16.75v-119.67h14.36l2.39,25.61h1.68c6.94-22.74,25.37-27.53,46.43-27.53v16.75Z"/><path class="cls-1" d="M851.37,1293.27c-8.86,21.54-29.44,34.95-56.49,34.95-37.34,0-62.23-24.89-62.23-62.23s24.89-62.23,62.23-62.23c41.41,0,62.23,29.44,62.23,67.5h-107.23c1.68,25.37,18.43,42.6,45,42.6,17.95,0,31.12-6.94,38.77-20.58h17.71Zm-11.49-33.99c-3.11-23.93-19.63-41.17-45-41.17s-42.6,16.28-45,41.17h90Z"/><path class="cls-1" d="M880.81,1235.83c0-21.06,22.74-32.07,45.72-32.07,21.78,0,43.8,9.81,47.39,31.12h-16.99c-3.11-12.92-17.47-19.15-31.12-19.15-14.36,0-28.24,6.94-28.24,19.87,0,28.72,80.9,19.63,80.9,58.88,0,21.78-25.37,33.75-50.5,33.75-22.98,0-45.96-10.05-49.31-31.59h16.99c3.11,13.64,18.67,19.63,33.75,19.63,16.52,0,32.31-7.18,32.31-19.87,0-28.48-80.9-21.06-80.9-60.55Z"/><path class="cls-1" d="M1027.05,1284.89c0,19.63,9.33,25.61,21.78,25.61,2.87,0,9.33-.72,12.45-2.15v17.95c-3.11,.48-10.29,.72-13.4,.72-20.58,0-37.58-11.01-37.58-42.12v-67.5h-21.06v-3.59c17.47-6.7,26.81-24.17,34.23-55.53h3.59v45.96h32.79v13.17h-32.79v67.5Z"/><path class="cls-4" d="M1116.33,1304.04v21.78h-28.72v-179.51h28.72v81.62h2.39c7.42-15.56,20.58-24.17,37.34-24.17,28.24,0,53.14,24.89,53.14,62.23s-24.89,62.23-51.46,62.23c-16.04,0-31.59-8.86-39.01-24.17h-2.39Zm0-26.33c0,20.82,18.19,31.35,32.31,31.35,20.82,0,31.83-22.98,31.83-43.08s-11.97-44.28-33.99-44.28-30.16,22.26-30.16,38.3v17.71Z"/><path class="cls-4" d="M1242.71,1146.31c11.49,0,19.15,7.66,19.15,19.15s-7.66,19.15-19.15,19.15-19.15-7.66-19.15-19.15,7.66-19.15,19.15-19.15Zm-13.64,59.84h28.72v119.67h-28.72v-119.67Z"/><path class="cls-4" d="M1278.61,1146.31h28.72v179.51h-28.72v-179.51Z"/><path class="cls-4" d="M1331.27,1146.31h28.72v179.51h-28.72v-179.51Z"/><path class="cls-4" d="M1382.24,1238.22c0-22.74,26.33-34.71,51.94-34.71,24.17,0,47.87,10.77,47.87,33.75h-28.72c0-9.81-10.29-14.6-20.82-14.6s-21.54,5.03-21.54,14.84c0,21.54,76.11,17.23,76.11,55.53,0,22.98-27.76,35.18-54.81,35.18-25.61,0-50.74-11.01-50.74-33.51h28.72c0,9.81,12.45,14.36,24.65,14.36s23.7-4.31,23.7-12.21c0-21.54-76.35-20.34-76.35-58.64Z"/></g></svg>